<svg xmlns="http://www.w3.org/2000/svg" version="1.1" xmlns:xlink="http://www.w3.org/1999/xlink" xmlns:svgjs="http://svgjs.dev/svgjs" width="100%" height="100%" viewBox="0 0 1000 600"><rect width="1000" height="600" x="0" y="0" fill="white"/><g><circle r="166.66666666666666" cx="341.4883829752604" cy="363.71055947830246" fill="white" transform="matrix(0.7150143509114715,0,0,0.7150143509114715,0,39.94173146265014)"/><path d="M295.21995661033486 397.4352479326678L279.7065926393525 397.4352479326678L247.19972489822393 366.40851999070304L279.7065926393525 335.5129436765122L295.21995661033486 335.5129436765122L262.58193724143234 366.40851999070304L295.21995661033486 397.4352479326678ZM354.7065877792588 288.71054850801704L366.97863294954084 288.71054850801704L330.0313458109209 438.71053878782976L317.890452268413 438.71053878782976L354.7065877792588 288.71054850801704ZM420.26366571943686 366.40851999070304L387.62564635053434 335.5129436765122L403.1390103215167 335.5129436765122L435.7770296904192 366.40851999070304L403.1390103215167 397.4352479326678L387.62564635053434 397.4352479326678L420.26366571943686 366.40851999070304Z " fill="Black" transform="matrix(0.7150143509114715,0,0,0.7150143509114715,0,39.94173146265014)"/><path d="M639.5086071230301 397.4352479326678L623.9952431520477 397.4352479326678L591.488375410919 366.40851999070304L623.9952431520477 335.5129436765122L639.5086071230301 335.5129436765122L606.8705877541275 366.40851999070304L639.5086071230301 397.4352479326678ZM698.995238291954 288.71054850801704L711.267283462236 288.71054850801704L674.3199963236161 438.71053878782976L662.1791027811082 438.71053878782976L698.995238291954 288.71054850801704ZM820.9475161749544 433.57688935781874L805.0219613738252 433.57688935781874L786.2860145489673 414.8409425329608Q779.3911861174196 416.71453721544657 772.2527903771487 416.71453721544657L772.2527903771487 416.71453721544657Q759.156363546573 416.71453721544657 748.3644581754547 410.587882603718Q737.5725528043366 404.44249204516467 731.3147465648341 393.44449125897296Q725.0382043785066 382.46522641960627 725.0382043785066 368.69430550333567L725.0382043785066 368.69430550333567Q725.0382043785066 354.94212053389 731.3147465648341 343.94411974769827Q737.5725528043366 332.94611896150667 748.3644581754547 326.8194643497781Q759.156363546573 320.67407379122477 772.2527903771487 320.67407379122477L772.2527903771487 320.67407379122477Q785.4616328886735 320.67407379122477 796.2535382597918 326.8194643497781Q807.0454436309099 332.94611896150667 813.2657779767627 343.8691759603989Q819.4673763757906 354.8109689061159 819.4673763757906 368.69430550333567L819.4673763757906 368.69430550333567Q819.4673763757906 382.1841872172334 813.5280812323107 392.9760925883516Q807.5887860888307 403.7679979594697 797.2090715478595 409.96959635849777L797.2090715478595 409.96959635849777L820.9475161749544 433.57688935781874ZM737.5725528043366 368.69430550333567Q737.5725528043366 379.89840170460076 742.1066519359522 388.38578561626133Q746.622015120743 396.8919054747469 754.5098487340082 401.4822124468371Q762.3976823472734 406.07251941892724 772.2527903771487 406.07251941892724L772.2527903771487 406.07251941892724Q782.0891624601991 406.07251941892724 789.9957320202891 401.4822124468371Q797.8835656335543 396.8919054747469 802.3989288183451 388.38578561626133Q806.9142920031359 379.89840170460076 806.9142920031359 368.69430550333567L806.9142920031359 368.69430550333567Q806.9142920031359 357.3590576742966 802.3989288183451 348.9278816031105Q797.8835656335543 340.4967055319244 790.0519398607637 335.92513450665916Q782.239050034798 331.3348275345689 772.2527903771487 331.3348275345689L772.2527903771487 331.3348275345689Q762.2665307194994 331.3348275345689 754.4349049467088 335.92513450665916Q746.622015120743 340.4967055319244 742.1066519359522 348.9278816031105Q737.5725528043366 357.3590576742966 737.5725528043366 368.69430550333567L737.5725528043366 368.69430550333567ZM883.000972058884 367.34531733194586Q888.134621488895 368.1509630454148 892.3689454713129 371.52343347388916Q896.6220054005557 374.8959039023636 899.1138863282619 379.89840170460076Q901.6245032027929 384.8821635600129 901.6245032027929 390.5591554479449L901.6245032027929 390.5591554479449Q901.6245032027929 397.69755118821575 897.9709935719455 403.43075091662234Q894.336219887923 409.1639506450288 887.3851836159007 412.4802132330287Q880.4341473438784 415.77773987420363 870.9912301441501 415.77773987420363L870.9912301441501 415.77773987420363L835.917537688016 415.77773987420363L835.917537688016 321.7607587070665L869.6422419727602 321.7607587070665Q879.2163108002627 321.7607587070665 885.9612516572116 324.92713372046745Q892.7061925141604 328.09350873386853 896.0786629426349 333.4894614194275Q899.4511333711092 338.88541410498664 899.4511333711092 345.63035496193555L899.4511333711092 345.63035496193555Q899.4511333711092 353.98658724582214 894.9357701863186 359.45748371868063Q890.4204070015277 364.92838019153925 883.000972058884 367.34531733194586L883.000972058884 367.34531733194586ZM848.189582858298 331.87816999248975L848.189582858298 362.3615554765336L868.8365962592915 362.3615554765336Q877.4738677455508 362.3615554765336 882.1953263454151 358.3145909623643Q886.9167849452793 354.267626448195 886.9167849452793 347.11049476109935L886.9167849452793 347.11049476109935Q886.9167849452793 339.97209902082847 882.1953263454151 335.92513450665916Q877.4738677455508 331.87816999248975 868.5742930037434 331.87816999248975L868.5742930037434 331.87816999248975L848.189582858298 331.87816999248975ZM869.9232811751332 405.6603285887804Q879.0851591724887 405.6603285887804 884.2188086024997 401.3510608190631Q889.333722085686 397.0230571025209 889.333722085686 389.34131890432917L889.333722085686 389.34131890432917Q889.333722085686 381.50969313153854 883.9377694001269 376.99432994674777Q878.5418167145677 372.478966761957 869.5110903449862 372.478966761957L869.5110903449862 372.478966761957L848.189582858298 372.478966761957L848.189582858298 405.6603285887804L869.9232811751332 405.6603285887804ZM947.8835559133671 321.7607587070665Q963.2657682565754 321.7607587070665 974.5260722983152 327.4939584354731Q985.7863763400547 333.22715816387955 991.8006152708341 343.8691759603989Q997.7961182547887 354.529929703743 997.7961182547887 368.97534470570855L997.7961182547887 368.97534470570855Q997.7961182547887 383.4020237608491 991.8006152708341 393.98783371689393Q985.7863763400547 404.57364367293866 974.5260722983152 410.17569177357115Q963.2657682565754 415.77773987420363 947.8835559133671 415.77773987420363L947.8835559133671 415.77773987420363L918.618006972939 415.77773987420363L918.618006972939 321.7607587070665L947.8835559133671 321.7607587070665ZM947.8835559133671 405.6603285887804Q966.094896227129 405.6603285887804 975.6689650546315 396.0113159739786Q985.2617698289587 386.3623033591767 985.2617698289587 368.97534470570855L985.2617698289587 368.97534470570855Q985.2617698289587 351.43849847764153 975.6127572141569 341.58339044776625Q965.963744599355 331.72828241789097 947.8835559133671 331.72828241789097L947.8835559133671 331.72828241789097L930.8900521432209 331.72828241789097L930.8900521432209 405.6603285887804L947.8835559133671 405.6603285887804ZM1081.4333848809547 375.98258881820544Q1081.4333848809547 379.4862108744538 1081.0399299976325 383.4020237608491L1081.0399299976325 383.4020237608491L1021.9467537120306 383.4020237608491Q1022.6212477977255 394.3250807597413 1029.4411324419739 400.47047131829476Q1036.2422811393972 406.5971259300233 1045.9662375414987 406.5971259300233L1045.9662375414987 406.5971259300233Q1053.9102789952385 406.5971259300233 1059.2500238403227 402.8874084587014Q1064.5710327385823 399.17769098737955 1066.7256666234412 392.9760925883516L1066.7256666234412 392.9760925883516L1079.953245081791 392.9760925883516Q1076.9929654834632 403.6368463316957 1068.074654794831 410.30684340134513Q1059.1750800530235 416.99557641781945 1045.9662375414987 416.99557641781945L1045.9662375414987 416.99557641781945Q1035.4366354259282 416.99557641781945 1027.1366109825162 412.2741178179553Q1018.8365865391041 407.55265921809104 1014.11512793924 398.84044394453207Q1009.3936693393757 390.146964617798 1009.3936693393757 378.68056516098494L1009.3936693393757 378.68056516098494Q1009.3936693393757 367.2141657041719 1013.983976311466 358.5768942179124Q1018.5742832835562 349.93962273165283 1026.8743077269683 345.2931079190881Q1035.1743321703802 340.6465931065233 1045.9662375414987 340.6465931065233L1045.9662375414987 340.6465931065233Q1056.4771037102437 340.6465931065233 1064.5710327385823 345.2181641317887Q1072.664961766921 349.80847110387884 1077.0491733239378 357.84619229174285Q1081.4333848809547 365.86517753278207 1081.4333848809547 375.98258881820544L1081.4333848809547 375.98258881820544ZM1068.7491488805258 373.4157641031998Q1068.7491488805258 366.40851999070304 1065.6577176544242 361.3498143479913Q1062.5475504814976 356.29110870527967 1057.226541583238 353.64934020297477Q1051.8867967381534 351.02630764749466 1045.4228950835777 351.02630764749466L1045.4228950835777 351.02630764749466Q1036.1111295116234 351.02630764749466 1029.5722840697476 356.96560279097463Q1023.0334386278723 362.9048979344546 1022.0779053398046 373.4157641031998L1022.0779053398046 373.4157641031998L1068.7491488805258 373.4157641031998ZM1102.080398281948 341.8456937033142L1125.144348823348 404.44249204516467L1148.0771477369744 341.8456937033142L1161.154838620725 341.8456937033142L1132.1515929358452 415.77773987420363L1117.8560655084784 415.77773987420363L1088.8528198235986 341.8456937033142L1102.080398281948 341.8456937033142ZM1208.238272991593 366.40851999070304L1175.6002536226906 335.5129436765122L1191.113617593673 335.5129436765122L1223.7516369625755 366.40851999070304L1191.113617593673 397.4352479326678L1175.6002536226906 397.4352479326678L1208.238272991593 366.40851999070304Z " fill="Black" transform="matrix(0.7150143509114715,0,0,0.7150143509114715,0,39.94173146265014)"/></g></svg>